<?xml version="1.0" encoding="utf-8"?>
<!-- Generator: Adobe Illustrator 26.0.1, SVG Export Plug-In . SVG Version: 6.00 Build 0)  -->
<svg version="1.1" id="Layer_1" xmlns="http://www.w3.org/2000/svg" xmlns:xlink="http://www.w3.org/1999/xlink" x="0px" y="0px"
	 viewBox="0 0 48 48" style="enable-background:new 0 0 48 48;" xml:space="preserve">
<style type="text/css">
	.st0{fill:#161616;}
	.st1{fill:#CF000F;}
	.st2{fill:#FFFFFF;}
</style>
<path class="st0" d="M0,0h48v48H0V0z"/>
<g>
	<path class="st1" d="M36.4,35.4c0.6,0,1-0.2,1.4-0.6c0.4-0.4,0.6-0.9,0.6-1.4c0-0.6-0.2-1-0.6-1.4c-0.4-0.4-0.9-0.6-1.4-0.6
		c-0.6,0-1,0.2-1.4,0.6c-0.4,0.4-0.6,0.9-0.6,1.4c0,0.6,0.2,1,0.6,1.4C35.4,35.2,35.9,35.4,36.4,35.4z"/>
	<path class="st2" d="M9.1,35.4V12.2h11.2c2.2,0,4,0.4,5.6,1.1c1.6,0.7,2.8,1.7,3.7,3c0.9,1.3,1.3,2.9,1.3,4.7s-0.4,3.3-1.3,4.6
		c-0.9,1.3-2.1,2.3-3.7,3c-1.6,0.7-3.5,1-5.6,1h-6.8l3.5-3.2v9.1H9.1z M16.9,27.2l-3.5-3.6h6.3c1.1,0,1.9-0.2,2.4-0.7
		c0.5-0.5,0.8-1.2,0.8-2c0-0.8-0.3-1.5-0.8-2c-0.5-0.5-1.3-0.7-2.4-0.7h-6.3l3.5-3.6V27.2z M23,35.4L17.3,27h8.3l5.8,8.5H23z"/>
</g>
</svg>
