<svg xmlns="http://www.w3.org/2000/svg" viewBox="0 0 415.07 60.33"><defs><style>.cls-1{fill:#fff;}.cls-2{fill:#ce2027;}</style></defs><g id="Layer_2" data-name="Layer 2"><g id="Layer_1-2" data-name="Layer 1"><path class="cls-1" d="M4.14,61.71V10.89H28.61a29.9,29.9,0,0,1,12.3,2.32,18.17,18.17,0,0,1,8,6.65,18.17,18.17,0,0,1,2.84,10.2,17.85,17.85,0,0,1-2.84,10.13,17.86,17.86,0,0,1-8,6.49,30.77,30.77,0,0,1-12.3,2.25h-15l7.62-7V61.71ZM21.27,43.78,13.65,36H27.52q3.56,0,5.26-1.6a5.65,5.65,0,0,0,1.71-4.35,5.69,5.69,0,0,0-1.71-4.36c-1.14-1.06-2.89-1.6-5.26-1.6H13.65l7.62-7.76ZM34.56,61.71,22.07,43.2H40.22L52.86,61.71Z" transform="translate(-4.14 -2.1)"/><path class="cls-1" d="M65.92,18.8a10.36,10.36,0,0,1-7.18-2.39,7.63,7.63,0,0,1-2.69-6A7.63,7.63,0,0,1,58.74,4.5a10.37,10.37,0,0,1,7.18-2.4,10.84,10.84,0,0,1,7.19,2.26,7.22,7.22,0,0,1,2.69,5.8,8,8,0,0,1-2.69,6.21A10.31,10.31,0,0,1,65.92,18.8Zm-8.2,42.91V22H74.13V61.71Z" transform="translate(-4.14 -2.1)"/><path class="cls-1" d="M96.92,62.44a46.09,46.09,0,0,1-10-1.09,28.79,28.79,0,0,1-8-2.83l4.5-10.82A24.7,24.7,0,0,0,90,50.31a29.75,29.75,0,0,0,7.3.95,10.62,10.62,0,0,0,4-.51,1.55,1.55,0,0,0,1.05-1.38c0-.58-.41-1-1.23-1.27a17,17,0,0,0-3.27-.62q-2-.21-4.47-.54a41.64,41.64,0,0,1-4.9-1A16,16,0,0,1,84,44a9.89,9.89,0,0,1-3.27-3.52,11.53,11.53,0,0,1-1.23-5.63A11.09,11.09,0,0,1,81.79,28a15.71,15.71,0,0,1,6.82-4.9,29.92,29.92,0,0,1,11.22-1.85,48.42,48.42,0,0,1,8.71.8A25.57,25.57,0,0,1,116,24.54l-4.5,10.82a21.69,21.69,0,0,0-6-2.29,26.91,26.91,0,0,0-5.48-.62A10.56,10.56,0,0,0,95.8,33c-.75.39-1.13.83-1.13,1.31s.41,1,1.24,1.31a14.56,14.56,0,0,0,3.26.65c1.36.15,2.85.33,4.47.55a33.6,33.6,0,0,1,4.86,1,16.59,16.59,0,0,1,4.47,2,9.81,9.81,0,0,1,3.27,3.52A11.5,11.5,0,0,1,117.47,49a11.06,11.06,0,0,1-2.25,6.64,15.25,15.25,0,0,1-6.82,4.94A30.9,30.9,0,0,1,96.92,62.44Z" transform="translate(-4.14 -2.1)"/><path class="cls-1" d="M150,21.27a18.28,18.28,0,0,1,8.27,1.85,13.48,13.48,0,0,1,5.85,5.78,21.19,21.19,0,0,1,2.14,10.16V61.71H149.85V41.89c0-2.47-.43-4.22-1.31-5.26A4.38,4.38,0,0,0,145,35.07a6.37,6.37,0,0,0-3.09.76,5.38,5.38,0,0,0-2.25,2.5,11.07,11.07,0,0,0-.83,4.72V61.71H122.41V7.84h16.41V33.61l-3.92-3.34a15.88,15.88,0,0,1,6.27-6.75A17.55,17.55,0,0,1,150,21.27Z" transform="translate(-4.14 -2.1)"/><path class="cls-1" d="M186.15,62.44A17.81,17.81,0,0,1,178,60.77a11.59,11.59,0,0,1-6.61-10.67,10.77,10.77,0,0,1,2-6.54,11.88,11.88,0,0,1,6-4.06,32,32,0,0,1,10.21-1.38h8.27V46h-5.66a6.85,6.85,0,0,0-3.81.83,2.87,2.87,0,0,0-1.2,2.51,2.91,2.91,0,0,0,1.05,2.29,4.27,4.27,0,0,0,2.87.9,5.68,5.68,0,0,0,3.09-.9,5.26,5.26,0,0,0,2.07-2.87l2.1,4.86a10.38,10.38,0,0,1-4,6.61A13.89,13.89,0,0,1,186.15,62.44Zm11.26-.73v-7l-1.16-1.89V39.42A5.55,5.55,0,0,0,194.47,35c-1.19-1-3.11-1.52-5.78-1.52a18.92,18.92,0,0,0-5.44.83,15.37,15.37,0,0,0-4.72,2.29L173.3,25.77a28.08,28.08,0,0,1,8.35-3.34,41.06,41.06,0,0,1,9.51-1.16q10.25,0,15.87,4.58t5.62,14.52V61.71Z" transform="translate(-4.14 -2.1)"/><path class="cls-1" d="M237.19,62.44a18.92,18.92,0,0,1-9.54-2.51,18.5,18.5,0,0,1-7-7.11,22,22,0,0,1-2.61-11,22,22,0,0,1,2.61-11,18.28,18.28,0,0,1,7-7.08,19.19,19.19,0,0,1,9.54-2.47,15.19,15.19,0,0,1,8.57,2.22,12.87,12.87,0,0,1,4.94,6.75,35.52,35.52,0,0,1,1.59,11.58,38.6,38.6,0,0,1-1.48,11.69,12.28,12.28,0,0,1-4.8,6.75A15.82,15.82,0,0,1,237.19,62.44Zm3.92-12.78a6.25,6.25,0,0,0,3.27-.87,6.07,6.07,0,0,0,2.32-2.65,9.78,9.78,0,0,0,.88-4.32,9.49,9.49,0,0,0-.88-4.32,6.16,6.16,0,0,0-2.32-2.58,6.56,6.56,0,0,0-6.53,0,6.18,6.18,0,0,0-2.33,2.58,9.49,9.49,0,0,0-.87,4.32,9.79,9.79,0,0,0,.87,4.32,6.09,6.09,0,0,0,2.33,2.65A6.19,6.19,0,0,0,241.11,49.66Zm7,12.05V56.34L248,41.82l-.73-14.52V7.84h16.41V61.71Z" transform="translate(-4.14 -2.1)"/><path class="cls-2" d="M293.24,61.71V10.89h24.47A29.9,29.9,0,0,1,330,13.21a18.26,18.26,0,0,1,8,6.65,18.24,18.24,0,0,1,2.83,10.2A18,18,0,0,1,338,40.22a18.5,18.5,0,0,1-8,6.64,29.41,29.41,0,0,1-12.3,2.36h-15l7.63-7.33V61.71Zm17.14-17.93L302.75,36h13.87c2.37,0,4.13-.53,5.26-1.6a5.65,5.65,0,0,0,1.71-4.35,5.69,5.69,0,0,0-1.71-4.36c-1.13-1.06-2.89-1.6-5.26-1.6H302.75l7.63-7.76Z" transform="translate(-4.14 -2.1)"/><path class="cls-2" d="M347.19,61.71V10.89H364V61.71ZM362.5,50.82,361.56,32l19.17-21.13h18.66L377.9,34.56l-9.51,9.73Zm18.08,10.89L365.63,42,376.74,30.2,400.4,61.71Z" transform="translate(-4.14 -2.1)"/><path class="cls-2" d="M409.62,62.44a9.45,9.45,0,0,1-6.82-2.65A9,9,0,0,1,400,53a8.72,8.72,0,0,1,2.76-6.75,10.44,10.44,0,0,1,13.65,0A8.72,8.72,0,0,1,419.21,53a9,9,0,0,1-2.76,6.79A9.47,9.47,0,0,1,409.62,62.44Z" transform="translate(-4.14 -2.1)"/></g></g></svg>